<svg width="382" height="42" viewBox="0 0 382 42" fill="none" xmlns="http://www.w3.org/2000/svg">
<path d="M15.8344 38.24C15.061 38.24 14.4344 38.0133 13.9544 37.56C13.501 37.08 13.2744 36.44 13.2744 35.64V12.24C13.2744 11.4667 13.4877 10.8667 13.9144 10.44C14.3677 10.0133 14.981 9.8 15.7544 9.8H25.5944C28.6077 9.8 30.9544 10.56 32.6344 12.08C34.3144 13.5733 35.1544 15.68 35.1544 18.4C35.1544 21.12 34.3144 23.24 32.6344 24.76C30.9544 26.28 28.6077 27.04 25.5944 27.04H18.4344V35.64C18.4344 36.44 18.1944 37.08 17.7144 37.56C17.261 38.0133 16.6344 38.24 15.8344 38.24ZM24.9544 23.08C28.501 23.08 30.2744 21.5333 30.2744 18.44C30.2744 15.3467 28.501 13.8 24.9544 13.8H18.4344V23.08H24.9544ZM51.85 38.36C49.1033 38.36 46.7167 37.7733 44.69 36.6C42.69 35.4267 41.1433 33.7467 40.05 31.56C38.9567 29.3733 38.41 26.8133 38.41 23.88C38.41 20.9467 38.9433 18.4 40.01 16.24C41.1033 14.0533 42.6633 12.3733 44.69 11.2C46.7167 10.0267 49.1033 9.44 51.85 9.44C54.5967 9.44 56.97 10.0267 58.97 11.2C60.9967 12.3733 62.5433 14.0533 63.61 16.24C64.7033 18.4 65.25 20.9467 65.25 23.88C65.25 26.8133 64.7033 29.3733 63.61 31.56C62.5167 33.7467 60.9567 35.4267 58.93 36.6C56.93 37.7733 54.57 38.36 51.85 38.36ZM51.85 34.24C54.4367 34.24 56.45 33.3467 57.89 31.56C59.3567 29.7733 60.09 27.2133 60.09 23.88C60.09 20.5467 59.3567 18 57.89 16.24C56.45 14.4533 54.4367 13.56 51.85 13.56C49.2367 13.56 47.1967 14.4533 45.73 16.24C44.29 18 43.57 20.5467 43.57 23.88C43.57 27.2133 44.29 29.7733 45.73 31.56C47.1967 33.3467 49.2367 34.24 51.85 34.24ZM83.0619 38.36C80.3419 38.36 77.9552 37.7733 75.9019 36.6C73.8752 35.4267 72.3152 33.7467 71.2219 31.56C70.1285 29.3733 69.5819 26.8133 69.5819 23.88C69.5819 20.9467 70.1285 18.4 71.2219 16.24C72.3152 14.0533 73.8752 12.3733 75.9019 11.2C77.9552 10.0267 80.3419 9.44 83.0619 9.44C84.8219 9.44 86.4752 9.70667 88.0219 10.24C89.5685 10.7467 90.9419 11.4933 92.1419 12.48C92.4885 12.7467 92.7285 13.0267 92.8619 13.32C92.9952 13.6133 93.0619 13.9733 93.0619 14.4C93.0619 14.9867 92.9019 15.48 92.5819 15.88C92.2619 16.28 91.8752 16.48 91.4219 16.48C90.8885 16.48 90.3419 16.2933 89.7819 15.92C88.6352 15.0667 87.5685 14.48 86.5819 14.16C85.5952 13.8133 84.5019 13.64 83.3019 13.64C80.5285 13.64 78.4219 14.5067 76.9819 16.24C75.5685 17.9733 74.8619 20.52 74.8619 23.88C74.8619 27.2667 75.5685 29.8267 76.9819 31.56C78.4219 33.2933 80.5285 34.16 83.3019 34.16C84.4485 34.16 85.5019 33.9867 86.4619 33.64C87.4485 33.2933 88.5552 32.7067 89.7819 31.88C90.0485 31.72 90.3152 31.5867 90.5819 31.48C90.8485 31.3733 91.1285 31.32 91.4219 31.32C91.8752 31.32 92.2619 31.52 92.5819 31.92C92.9019 32.32 93.0619 32.8133 93.0619 33.4C93.0619 33.8 92.9952 34.16 92.8619 34.48C92.7285 34.7733 92.4885 35.0533 92.1419 35.32C90.9419 36.3067 89.5685 37.0667 88.0219 37.6C86.4752 38.1067 84.8219 38.36 83.0619 38.36ZM109.663 38.36C106.943 38.36 104.557 37.7733 102.503 36.6C100.477 35.4267 98.9168 33.7467 97.8234 31.56C96.7301 29.3733 96.1834 26.8133 96.1834 23.88C96.1834 20.9467 96.7301 18.4 97.8234 16.24C98.9168 14.0533 100.477 12.3733 102.503 11.2C104.557 10.0267 106.943 9.44 109.663 9.44C111.423 9.44 113.077 9.70667 114.623 10.24C116.17 10.7467 117.543 11.4933 118.743 12.48C119.09 12.7467 119.33 13.0267 119.463 13.32C119.597 13.6133 119.663 13.9733 119.663 14.4C119.663 14.9867 119.503 15.48 119.183 15.88C118.863 16.28 118.477 16.48 118.023 16.48C117.49 16.48 116.943 16.2933 116.383 15.92C115.237 15.0667 114.17 14.48 113.183 14.16C112.197 13.8133 111.103 13.64 109.903 13.64C107.13 13.64 105.023 14.5067 103.583 16.24C102.17 17.9733 101.463 20.52 101.463 23.88C101.463 27.2667 102.17 29.8267 103.583 31.56C105.023 33.2933 107.13 34.16 109.903 34.16C111.05 34.16 112.103 33.9867 113.063 33.64C114.05 33.2933 115.157 32.7067 116.383 31.88C116.65 31.72 116.917 31.5867 117.183 31.48C117.45 31.3733 117.73 31.32 118.023 31.32C118.477 31.32 118.863 31.52 119.183 31.92C119.503 32.32 119.663 32.8133 119.663 33.4C119.663 33.8 119.597 34.16 119.463 34.48C119.33 34.7733 119.09 35.0533 118.743 35.32C117.543 36.3067 116.17 37.0667 114.623 37.6C113.077 38.1067 111.423 38.36 109.663 38.36ZM126.653 38C125.879 38 125.266 37.7867 124.813 37.36C124.386 36.9333 124.173 36.3333 124.173 35.56V12.24C124.173 11.4667 124.386 10.8667 124.813 10.44C125.266 10.0133 125.879 9.8 126.653 9.8H141.093C141.866 9.8 142.466 9.97333 142.893 10.32C143.319 10.6667 143.533 11.16 143.533 11.8C143.533 12.4667 143.319 12.9867 142.893 13.36C142.466 13.7067 141.866 13.88 141.093 13.88H129.213V21.64H140.293C141.066 21.64 141.666 21.8133 142.093 22.16C142.519 22.5067 142.733 23.0133 142.733 23.68C142.733 24.32 142.519 24.8133 142.093 25.16C141.666 25.5067 141.066 25.68 140.293 25.68H129.213V33.92H141.093C141.866 33.92 142.466 34.1067 142.893 34.48C143.319 34.8267 143.533 35.3333 143.533 36C143.533 36.64 143.319 37.1333 142.893 37.48C142.466 37.8267 141.866 38 141.093 38H126.653ZM157.007 38.2C156.207 38.2 155.567 37.9733 155.087 37.52C154.633 37.04 154.407 36.4133 154.407 35.64V14.04H147.127C145.527 14.04 144.727 13.3333 144.727 11.92C144.727 10.5067 145.527 9.8 147.127 9.8H166.847C168.447 9.8 169.247 10.5067 169.247 11.92C169.247 13.3333 168.447 14.04 166.847 14.04H159.567V35.64C159.567 36.4133 159.327 37.04 158.847 37.52C158.393 37.9733 157.78 38.2 157.007 38.2ZM191.138 11.12C191.538 10.56 191.951 10.16 192.378 9.92C192.831 9.68 193.458 9.56 194.258 9.56C195.031 9.56 195.631 9.78667 196.058 10.24C196.484 10.6667 196.698 11.2667 196.698 12.04V35.68C196.698 36.4533 196.458 37.08 195.978 37.56C195.524 38.0133 194.924 38.24 194.178 38.24C193.404 38.24 192.791 38.0133 192.338 37.56C191.884 37.08 191.658 36.4533 191.658 35.68V17.28L178.258 36.2C177.698 37.0267 177.164 37.5733 176.658 37.84C176.151 38.1067 175.511 38.24 174.738 38.24C173.964 38.24 173.364 38.0267 172.938 37.6C172.511 37.1467 172.298 36.5333 172.298 35.76V12.12C172.298 11.3467 172.524 10.7333 172.978 10.28C173.458 9.8 174.071 9.56 174.818 9.56C175.591 9.56 176.204 9.8 176.658 10.28C177.138 10.7333 177.378 11.3467 177.378 12.12V30.48L191.138 11.12Z" fill="#FAF9FA"/>
<path d="M237.55 22.175C236.417 22.175 235.408 21.9167 234.525 21.4C233.658 20.8833 232.983 20.15 232.5 19.2C232.033 18.25 231.8 17.15 231.8 15.9C231.8 14.65 232.042 13.5417 232.525 12.575C233.025 11.6083 233.717 10.8583 234.6 10.325C235.483 9.79167 236.5 9.525 237.65 9.525C238.283 9.525 238.908 9.61667 239.525 9.8C240.158 9.96667 240.708 10.2167 241.175 10.55C241.475 10.75 241.683 10.95 241.8 11.15C241.933 11.3333 242 11.5417 242 11.775C242 12.0083 241.933 12.2 241.8 12.35C241.683 12.5 241.525 12.575 241.325 12.575C241.208 12.575 241.083 12.5417 240.95 12.475C240.817 12.4083 240.7 12.3417 240.6 12.275C240.517 12.2083 240.458 12.1667 240.425 12.15C239.992 11.8667 239.575 11.6417 239.175 11.475C238.792 11.3083 238.317 11.225 237.75 11.225C236.533 11.225 235.583 11.6417 234.9 12.475C234.233 13.2917 233.9 14.4333 233.9 15.9C233.9 17.3667 234.233 18.5 234.9 19.3C235.583 20.1 236.533 20.5 237.75 20.5C238.317 20.5 238.8 20.4167 239.2 20.25C239.617 20.0833 240.033 19.8583 240.45 19.575C240.633 19.4583 240.808 19.3583 240.975 19.275C241.142 19.1917 241.283 19.15 241.4 19.15C241.583 19.15 241.733 19.225 241.85 19.375C241.983 19.525 242.05 19.7167 242.05 19.95C242.05 20.1667 241.992 20.3667 241.875 20.55C241.758 20.7167 241.542 20.9083 241.225 21.125C240.758 21.4417 240.192 21.7 239.525 21.9C238.875 22.0833 238.217 22.175 237.55 22.175ZM249.788 22.175C248.638 22.175 247.621 21.9167 246.738 21.4C245.871 20.8833 245.196 20.15 244.713 19.2C244.246 18.2333 244.013 17.1167 244.013 15.85C244.013 14.5833 244.246 13.475 244.713 12.525C245.196 11.5583 245.871 10.8167 246.738 10.3C247.621 9.78333 248.638 9.525 249.788 9.525C250.938 9.525 251.954 9.78333 252.838 10.3C253.721 10.8167 254.396 11.5583 254.863 12.525C255.346 13.475 255.588 14.5833 255.588 15.85C255.588 17.1167 255.346 18.2333 254.863 19.2C254.396 20.15 253.721 20.8833 252.838 21.4C251.954 21.9167 250.938 22.175 249.788 22.175ZM249.788 20.5C250.988 20.5 251.904 20.1083 252.538 19.325C253.188 18.525 253.513 17.3667 253.513 15.85C253.513 14.3667 253.188 13.225 252.538 12.425C251.888 11.6083 250.971 11.2 249.788 11.2C248.604 11.2 247.688 11.6083 247.038 12.425C246.388 13.225 246.063 14.3667 246.063 15.85C246.063 17.35 246.379 18.5 247.013 19.3C247.663 20.1 248.588 20.5 249.788 20.5ZM263.905 22.175C262.755 22.175 261.738 21.9167 260.855 21.4C259.988 20.8833 259.313 20.15 258.83 19.2C258.363 18.2333 258.13 17.1167 258.13 15.85C258.13 14.5833 258.363 13.475 258.83 12.525C259.313 11.5583 259.988 10.8167 260.855 10.3C261.738 9.78333 262.755 9.525 263.905 9.525C265.055 9.525 266.072 9.78333 266.955 10.3C267.838 10.8167 268.513 11.5583 268.98 12.525C269.463 13.475 269.705 14.5833 269.705 15.85C269.705 17.1167 269.463 18.2333 268.98 19.2C268.513 20.15 267.838 20.8833 266.955 21.4C266.072 21.9167 265.055 22.175 263.905 22.175ZM263.905 20.5C265.105 20.5 266.022 20.1083 266.655 19.325C267.305 18.525 267.63 17.3667 267.63 15.85C267.63 14.3667 267.305 13.225 266.655 12.425C266.005 11.6083 265.088 11.2 263.905 11.2C262.722 11.2 261.805 11.6083 261.155 12.425C260.505 13.225 260.18 14.3667 260.18 15.85C260.18 17.35 260.497 18.5 261.13 19.3C261.78 20.1 262.705 20.5 263.905 20.5ZM278.372 22.175C277.022 22.175 275.906 21.8333 275.022 21.15C274.156 20.4667 273.522 19.5917 273.122 18.525C272.739 17.4417 272.547 16.275 272.547 15.025C272.547 13.0583 272.714 11.4583 273.047 10.225C273.397 8.99167 273.889 8.03333 274.522 7.35C275.156 6.66667 275.972 6.1 276.972 5.65C277.506 5.4 278.314 5.11667 279.397 4.8C280.564 4.45 281.506 4.11667 282.222 3.8C282.372 3.73333 282.531 3.7 282.697 3.7C282.947 3.7 283.147 3.78333 283.297 3.95C283.447 4.1 283.522 4.28333 283.522 4.5C283.522 4.66667 283.472 4.83333 283.372 5C283.272 5.15 283.122 5.275 282.922 5.375C282.522 5.60833 282.081 5.80833 281.597 5.975C281.131 6.14167 280.531 6.33333 279.797 6.55C278.647 6.91667 277.964 7.14167 277.747 7.225C276.664 7.60833 275.831 8.24167 275.247 9.125C274.664 9.99167 274.356 11.2167 274.322 12.8C274.689 11.9333 275.264 11.2167 276.047 10.65C276.847 10.0667 277.822 9.775 278.972 9.775C280.506 9.775 281.756 10.2917 282.722 11.325C283.706 12.3583 284.197 13.8917 284.197 15.925C284.197 17.0583 283.964 18.1 283.497 19.05C283.047 20 282.381 20.7583 281.497 21.325C280.614 21.8917 279.572 22.175 278.372 22.175ZM278.372 20.5C279.672 20.5 280.622 20.0417 281.222 19.125C281.822 18.1917 282.122 17.1333 282.122 15.95C282.122 14.55 281.814 13.4583 281.197 12.675C280.581 11.875 279.714 11.475 278.597 11.475C277.731 11.475 276.997 11.7 276.397 12.15C275.814 12.5833 275.381 13.15 275.097 13.85C274.814 14.5333 274.672 15.2417 274.672 15.975C274.672 17.2417 274.964 18.3167 275.547 19.2C276.131 20.0667 277.072 20.5 278.372 20.5ZM303.856 25.3C303.572 25.3 303.339 25.2083 303.156 25.025C302.989 24.8583 302.906 24.625 302.906 24.325V22H288.456C288.139 22 287.881 21.9083 287.681 21.725C287.497 21.5417 287.406 21.3 287.406 21V10.575C287.406 10.275 287.497 10.0333 287.681 9.85C287.864 9.66667 288.106 9.575 288.406 9.575C288.722 9.575 288.972 9.66667 289.156 9.85C289.339 10.0333 289.431 10.275 289.431 10.575V20.4H294.156V10.575C294.156 10.275 294.239 10.0333 294.406 9.85C294.589 9.66667 294.831 9.575 295.131 9.575C295.447 9.575 295.697 9.66667 295.881 9.85C296.064 10.0333 296.156 10.275 296.156 10.575V20.4H300.881V10.575C300.881 10.275 300.972 10.0333 301.156 9.85C301.339 9.66667 301.581 9.575 301.881 9.575C302.181 9.575 302.422 9.66667 302.606 9.85C302.789 10.0333 302.881 10.275 302.881 10.575V20.4H303.731C304.047 20.4 304.297 20.4917 304.481 20.675C304.681 20.8583 304.781 21.1083 304.781 21.425V24.325C304.781 24.625 304.697 24.8583 304.531 25.025C304.364 25.2083 304.139 25.3 303.856 25.3ZM316.637 19.175C316.821 19.175 316.979 19.25 317.112 19.4C317.246 19.55 317.312 19.7417 317.312 19.975C317.312 20.3917 317.021 20.775 316.437 21.125C315.837 21.475 315.204 21.7417 314.537 21.925C313.871 22.0917 313.221 22.175 312.587 22.175C310.704 22.175 309.212 21.6167 308.112 20.5C307.029 19.3833 306.487 17.8417 306.487 15.875C306.487 14.625 306.729 13.525 307.212 12.575C307.696 11.6083 308.371 10.8583 309.237 10.325C310.121 9.79167 311.121 9.525 312.237 9.525C313.821 9.525 315.079 10.0417 316.012 11.075C316.946 12.1083 317.412 13.5083 317.412 15.275C317.412 15.6083 317.346 15.85 317.212 16C317.079 16.15 316.862 16.225 316.562 16.225H308.512C308.662 19.0917 310.021 20.525 312.587 20.525C313.237 20.525 313.796 20.4417 314.262 20.275C314.729 20.0917 315.229 19.85 315.762 19.55C316.196 19.3 316.487 19.175 316.637 19.175ZM312.262 11.1C311.196 11.1 310.337 11.4333 309.687 12.1C309.054 12.7667 308.679 13.7083 308.562 14.925H315.637C315.604 13.6917 315.296 12.75 314.712 12.1C314.129 11.4333 313.312 11.1 312.262 11.1ZM325.671 22.175C324.538 22.175 323.529 21.9167 322.646 21.4C321.779 20.8833 321.104 20.15 320.621 19.2C320.154 18.25 319.921 17.15 319.921 15.9C319.921 14.65 320.163 13.5417 320.646 12.575C321.146 11.6083 321.838 10.8583 322.721 10.325C323.604 9.79167 324.621 9.525 325.771 9.525C326.404 9.525 327.029 9.61667 327.646 9.8C328.279 9.96667 328.829 10.2167 329.296 10.55C329.596 10.75 329.804 10.95 329.921 11.15C330.054 11.3333 330.121 11.5417 330.121 11.775C330.121 12.0083 330.054 12.2 329.921 12.35C329.804 12.5 329.646 12.575 329.446 12.575C329.329 12.575 329.204 12.5417 329.071 12.475C328.938 12.4083 328.821 12.3417 328.721 12.275C328.638 12.2083 328.579 12.1667 328.546 12.15C328.113 11.8667 327.696 11.6417 327.296 11.475C326.913 11.3083 326.438 11.225 325.871 11.225C324.654 11.225 323.704 11.6417 323.021 12.475C322.354 13.2917 322.021 14.4333 322.021 15.9C322.021 17.3667 322.354 18.5 323.021 19.3C323.704 20.1 324.654 20.5 325.871 20.5C326.438 20.5 326.921 20.4167 327.321 20.25C327.738 20.0833 328.154 19.8583 328.571 19.575C328.754 19.4583 328.929 19.3583 329.096 19.275C329.263 19.1917 329.404 19.15 329.521 19.15C329.704 19.15 329.854 19.225 329.971 19.375C330.104 19.525 330.171 19.7167 330.171 19.95C330.171 20.1667 330.113 20.3667 329.996 20.55C329.879 20.7167 329.663 20.9083 329.346 21.125C328.879 21.4417 328.313 21.7 327.646 21.9C326.996 22.0833 326.338 22.175 325.671 22.175ZM336.584 22.125C336.284 22.125 336.042 22.0417 335.859 21.875C335.676 21.6917 335.584 21.45 335.584 21.15V11.425H332.009C331.759 11.425 331.559 11.35 331.409 11.2C331.259 11.05 331.184 10.8583 331.184 10.625C331.184 10.3917 331.259 10.2 331.409 10.05C331.559 9.9 331.759 9.825 332.009 9.825H341.159C341.409 9.825 341.609 9.9 341.759 10.05C341.909 10.2 341.984 10.3917 341.984 10.625C341.984 10.8583 341.909 11.05 341.759 11.2C341.609 11.35 341.409 11.425 341.159 11.425H337.609V21.15C337.609 21.45 337.509 21.6917 337.309 21.875C337.126 22.0417 336.884 22.125 336.584 22.125ZM345.315 22C344.998 22 344.74 21.9083 344.54 21.725C344.357 21.5417 344.265 21.3 344.265 21V10.875C344.265 10.5583 344.357 10.3083 344.54 10.125C344.723 9.925 344.973 9.825 345.29 9.825H349.615C350.948 9.825 351.982 10.0833 352.715 10.6C353.448 11.1167 353.815 11.8917 353.815 12.925C353.815 13.525 353.64 14.0833 353.29 14.6C352.94 15.1167 352.407 15.5 351.69 15.75C352.44 15.8833 353.032 16.2 353.465 16.7C353.915 17.2 354.14 17.8333 354.14 18.6C354.14 19.1667 353.982 19.7083 353.665 20.225C353.365 20.7417 352.882 21.1667 352.215 21.5C351.548 21.8333 350.715 22 349.715 22H345.315ZM349.465 15.075C350.165 15.075 350.732 14.9 351.165 14.55C351.598 14.1833 351.815 13.6917 351.815 13.075C351.815 11.9083 351.007 11.325 349.39 11.325H346.29V15.075H349.465ZM349.515 20.5C351.232 20.5 352.09 19.8417 352.09 18.525C352.09 17.8583 351.84 17.3583 351.34 17.025C350.84 16.6917 350.157 16.525 349.29 16.525H346.29V20.5H349.515ZM362.408 22.175C361.258 22.175 360.241 21.9167 359.358 21.4C358.491 20.8833 357.816 20.15 357.333 19.2C356.866 18.2333 356.633 17.1167 356.633 15.85C356.633 14.5833 356.866 13.475 357.333 12.525C357.816 11.5583 358.491 10.8167 359.358 10.3C360.241 9.78333 361.258 9.525 362.408 9.525C363.558 9.525 364.575 9.78333 365.458 10.3C366.341 10.8167 367.016 11.5583 367.483 12.525C367.966 13.475 368.208 14.5833 368.208 15.85C368.208 17.1167 367.966 18.2333 367.483 19.2C367.016 20.15 366.341 20.8833 365.458 21.4C364.575 21.9167 363.558 22.175 362.408 22.175ZM362.408 20.5C363.608 20.5 364.525 20.1083 365.158 19.325C365.808 18.525 366.133 17.3667 366.133 15.85C366.133 14.3667 365.808 13.225 365.158 12.425C364.508 11.6083 363.591 11.2 362.408 11.2C361.225 11.2 360.308 11.6083 359.658 12.425C359.008 13.225 358.683 14.3667 358.683 15.85C358.683 17.35 359 18.5 359.633 19.3C360.283 20.1 361.208 20.5 362.408 20.5Z" fill="#0083E1"/>
<line x1="217.5" y1="3" x2="217.5" y2="42" stroke="#0080DC" stroke-width="3"/>
</svg>
